<?xml version="1.0" standalone="no"?>
<!DOCTYPE svg PUBLIC "-//W3C//DTD SVG 20010904//EN"
 "http://www.w3.org/TR/2001/REC-SVG-20010904/DTD/svg10.dtd">
<svg version="1.0" xmlns="http://www.w3.org/2000/svg"
 width="500.000000pt" height="500.000000pt" viewBox="0 0 500.000000 500.000000"
 preserveAspectRatio="xMidYMid meet">

<g transform="translate(0.000000,500.000000) scale(0.100000,-0.100000)"
fill="#000000" stroke="none">
<path d="M2730 4504 c-126 -34 -251 -115 -330 -216 -142 -179 -176 -429 -85
-633 14 -33 22 -61 17 -63 -5 -1 -46 -24 -91 -50 -199 -114 -374 -298 -476
-502 -138 -274 -167 -608 -71 -825 65 -146 195 -280 341 -350 437 -212 951 69
1004 549 15 135 7 175 -154 761 -34 124 -35 119 28 112 322 -38 581 -247 679
-549 59 -179 48 -418 -28 -641 -108 -319 -336 -577 -639 -723 -160 -77 -311
-115 -491 -121 -164 -7 -261 5 -406 48 -206 61 -370 160 -529 319 -152 151
-247 307 -308 505 -42 138 -54 218 -54 375 0 194 34 353 114 529 82 181 261
388 436 505 90 59 124 77 251 131 149 64 175 266 45 358 -81 58 -152 52 -307
-23 -188 -91 -313 -179 -461 -325 -623 -614 -660 -1598 -86 -2265 35 -41 72
-82 80 -90 256 -242 521 -383 847 -450 725 -151 1474 215 1811 884 179 355
225 792 117 1115 -62 188 -148 325 -294 472 -109 111 -227 196 -342 248 -138
63 -342 111 -467 111 -72 0 -131 29 -167 82 -24 34 -29 53 -32 112 -3 86 19
133 86 181 43 30 45 30 175 30 121 0 135 2 170 23 84 53 117 177 71 267 -26
50 -97 100 -164 114 -71 15 -224 13 -290 -5z m-222 -1516 c111 -411 122 -457
122 -500 0 -104 -66 -205 -166 -254 -43 -21 -70 -27 -122 -27 -167 0 -292 129
-292 301 0 189 80 388 213 530 53 56 163 142 182 142 6 0 34 -87 63 -192z"/>
</g>
</svg>
