<?xml version="1.0" standalone="no"?>
<!DOCTYPE svg PUBLIC "-//W3C//DTD SVG 20010904//EN"
 "http://www.w3.org/TR/2001/REC-SVG-20010904/DTD/svg10.dtd">
<svg version="1.0" xmlns="http://www.w3.org/2000/svg"
 width="500.000000pt" height="500.000000pt" viewBox="0 0 500.000000 500.000000"
 preserveAspectRatio="xMidYMid meet">

<g transform="translate(0.000000,500.000000) scale(0.100000,-0.100000)"
fill="#000000" stroke="none">
<path d="M0 2500 l0 -2500 2500 0 2500 0 0 2500 0 2500 -2500 0 -2500 0 0
-2500z m3324 1981 c126 -37 269 -116 340 -187 119 -120 71 -322 -87 -369 -28
-8 -58 -15 -66 -15 -39 0 -94 24 -162 70 -70 48 -175 90 -223 90 -68 0 -150
-51 -182 -111 -22 -43 -17 -92 25 -247 22 -79 41 -145 43 -147 2 -2 41 -8 88
-15 289 -38 540 -168 766 -398 363 -369 481 -877 328 -1416 -113 -400 -448
-786 -847 -976 -430 -205 -952 -236 -1385 -81 -598 213 -1042 728 -1178 1369
-35 163 -44 474 -19 642 19 126 66 302 114 423 185 464 561 838 1036 1029 163
66 325 -32 325 -197 0 -97 -61 -179 -159 -216 -340 -127 -646 -427 -786 -770
-180 -443 -126 -943 147 -1347 69 -102 231 -267 335 -342 155 -110 318 -182
506 -221 132 -28 365 -31 507 -5 422 75 738 304 915 661 154 311 147 689 -16
961 -105 174 -321 355 -487 409 -29 9 -56 14 -59 11 -3 -3 24 -119 60 -258 86
-327 86 -329 87 -421 0 -107 -24 -205 -77 -316 -39 -81 -58 -107 -137 -185
-155 -155 -290 -215 -501 -223 -148 -6 -224 10 -350 72 -322 159 -489 549
-414 965 62 343 322 634 682 761 37 13 67 28 67 32 0 5 -16 70 -36 145 -48
180 -51 296 -10 415 70 205 237 360 449 418 93 25 259 20 361 -10z"/>
<path d="M2570 3032 c-179 -89 -287 -218 -321 -380 -17 -85 -7 -255 20 -324
26 -68 98 -151 155 -180 62 -32 157 -35 229 -8 104 39 197 162 197 258 0 33
-71 316 -156 620 -18 64 -25 65 -124 14z"/>
</g>
</svg>
