<?xml version="1.0" standalone="no"?>
<!DOCTYPE svg PUBLIC "-//W3C//DTD SVG 20010904//EN"
 "http://www.w3.org/TR/2001/REC-SVG-20010904/DTD/svg10.dtd">
<svg version="1.0" xmlns="http://www.w3.org/2000/svg"
 width="533.000000pt" height="533.000000pt" viewBox="0 0 533.000000 533.000000"
 preserveAspectRatio="xMidYMid meet">

<g transform="translate(0.000000,533.000000) scale(0.100000,-0.100000)"
fill="#000000" stroke="none">
<path d="M1339 5182 c-128 -83 -209 -234 -253 -467 -16 -83 -35 -340 -30 -417
l4 -86 -56 -79 c-168 -233 -239 -510 -251 -980 -7 -251 16 -499 57 -638 66
-221 129 -343 230 -446 41 -42 82 -79 90 -81 11 -3 6 -15 -21 -49 -20 -24 -46
-62 -59 -84 -13 -22 -26 -42 -29 -45 -23 -20 -121 -222 -157 -322 -67 -183
-122 -463 -149 -743 -15 -160 -19 -533 -6 -670 6 -69 6 -70 36 -73 l30 -3 0
358 c0 389 8 489 65 783 29 149 102 384 147 474 62 125 153 266 211 327 43 46
38 64 -28 104 -139 82 -259 299 -314 570 -59 293 -43 842 33 1105 10 36 22 79
26 95 9 41 81 190 117 243 20 30 35 41 46 38 39 -12 42 3 46 220 8 396 66 631
189 759 61 63 89 62 176 -9 36 -29 129 -120 206 -201 149 -158 216 -224 279
-274 34 -27 46 -31 101 -31 151 0 390 -33 700 -96 136 -28 149 -29 445 -29
l305 0 73 -27 c113 -42 244 -129 362 -240 42 -39 150 -182 150 -197 0 -6 5
-11 10 -11 6 0 10 -4 10 -9 0 -6 16 -36 35 -68 93 -154 124 -291 125 -554 0
-131 1 -139 30 -197 87 -176 115 -496 59 -678 -36 -119 -76 -181 -184 -289
-96 -97 -234 -199 -365 -272 -78 -44 -259 -136 -297 -151 -53 -22 -166 -52
-194 -52 -32 0 -53 -23 -46 -49 3 -14 -2 -22 -22 -29 -14 -6 -80 -30 -146 -54
-182 -65 -501 -229 -688 -352 l-89 -58 -34 33 c-19 18 -34 38 -34 44 0 7 -13
23 -29 37 -15 14 -35 34 -42 44 -34 45 -218 204 -236 204 -17 0 -33 -17 -33
-36 0 -3 64 -69 143 -147 233 -231 338 -390 360 -544 10 -63 9 -78 -5 -101
-13 -21 -25 -28 -59 -30 -41 -3 -119 22 -119 39 0 4 -14 12 -31 18 -17 6 -58
29 -90 51 -32 22 -63 40 -69 40 -5 0 -17 12 -27 28 -22 34 -45 58 -51 53 -2
-2 -26 13 -53 33 -35 26 -47 41 -43 53 5 15 4 16 -5 3 -8 -12 -13 -12 -23 -2
-9 9 -9 12 0 12 21 0 13 16 -15 29 -25 11 -25 11 -13 -6 8 -10 1 -6 -15 8 -45
40 -194 139 -209 139 -8 0 -19 -6 -25 -14 -17 -21 -1 -46 51 -82 57 -39 98
-75 94 -83 -2 -3 -100 -4 -218 -1 -150 4 -217 2 -226 -5 -11 -10 -9 -22 8 -67
28 -77 77 -264 119 -458 9 -42 25 -104 56 -210 39 -135 73 -192 102 -169 7 6
13 9 13 5 0 -20 165 118 284 237 l139 140 32 -12 c130 -47 396 -90 595 -97
258 -9 481 22 730 103 42 13 85 21 98 18 17 -4 22 -2 16 6 -5 9 -2 10 10 6 10
-4 20 -7 22 -7 2 0 4 -6 4 -13 0 -7 16 -28 35 -47 19 -19 35 -41 35 -49 0 -8
3 -11 6 -8 4 4 14 -6 23 -22 26 -46 65 -88 101 -106 19 -10 40 -24 47 -31 8
-7 33 -19 56 -25 23 -6 45 -16 49 -22 4 -7 5 -40 2 -74 l-5 -63 41 0 41 0 -7
103 -6 104 31 12 c84 36 145 156 146 291 0 76 -3 92 -32 150 -17 36 -42 82
-55 103 -16 28 -19 40 -11 45 41 25 231 224 289 302 41 55 134 204 134 216 0
3 13 36 29 72 33 75 73 234 65 255 -11 30 -318 76 -504 77 -96 0 -285 -13
-370 -25 -28 -4 -16 5 60 46 52 29 128 73 168 98 41 25 88 54 105 65 54 31
219 167 275 225 64 67 131 168 156 234 45 119 64 281 47 407 -20 158 -38 266
-48 285 -57 109 -62 134 -67 325 -5 215 -23 303 -85 433 -35 72 -109 202 -132
232 -5 5 -35 44 -67 85 -65 82 -126 141 -213 202 l-56 40 -7 137 c-12 235 -53
472 -89 504 -11 9 -34 17 -51 17 -47 0 -92 -27 -251 -147 -78 -59 -265 -251
-315 -323 -41 -59 -49 -65 -84 -68 -21 -2 -109 10 -195 27 -323 63 -582 100
-703 101 -31 0 -67 4 -80 9 -25 9 -203 182 -311 301 -80 89 -247 240 -264 240
-7 0 -13 5 -13 10 0 16 -73 10 -101 -8z m2326 -223 c15 -23 46 -253 52 -382
l6 -139 -39 17 c-125 53 -160 59 -356 58 -104 0 -188 2 -188 5 0 24 244 276
299 308 17 10 31 21 31 25 0 8 131 98 160 111 22 10 28 9 35 -3z m670 -3309
c70 -10 132 -23 137 -28 6 -6 2 -37 -12 -86 -45 -162 -114 -292 -237 -445 -44
-55 -232 -241 -244 -241 -3 0 -33 35 -66 78 -131 166 -278 318 -364 376 -56
37 -156 76 -194 76 -20 0 -23 6 -28 68 -4 37 -9 79 -13 93 -6 26 -5 26 123 57
342 84 590 98 898 52z m-918 -359 c79 -23 241 -165 371 -326 31 -38 65 -79 75
-90 24 -26 118 -168 146 -220 28 -54 27 -111 -5 -171 -32 -61 -48 -74 -95 -74
-38 0 -40 1 -250 161 -41 31 -83 66 -93 78 -11 11 -23 21 -27 21 -10 0 -194
182 -233 230 -52 64 -60 95 -61 223 l0 119 33 29 c35 31 78 37 139 20z m-897
-151 c0 -129 114 -310 235 -374 56 -29 87 -33 104 -12 6 8 16 64 21 124 11
118 28 199 55 257 17 35 45 48 45 21 0 -8 11 -28 24 -43 21 -24 31 -28 71 -26
25 1 52 7 60 13 21 17 31 6 33 -37 4 -62 42 -164 83 -223 100 -142 120 -169
174 -229 31 -35 53 -67 48 -71 -32 -28 -325 -111 -462 -130 l-84 -11 -31 28
c-17 16 -51 45 -76 65 -25 20 -63 54 -85 77 -42 42 -69 50 -108 30 -36 -20
-95 -79 -133 -135 -33 -48 -41 -54 -72 -54 -43 0 -238 43 -352 77 l-85 25 -45
-53 c-107 -129 -325 -329 -358 -329 -21 0 -60 111 -102 295 l-19 80 24 50 c41
85 144 198 260 286 78 59 87 62 116 36 85 -77 228 -181 334 -244 119 -70 219
-84 274 -38 41 35 54 82 49 176 -4 68 -11 89 -51 171 -26 51 -56 107 -68 125
l-20 31 56 37 c30 20 58 41 61 46 13 22 24 5 24 -41z"/>
<path d="M3950 1536 c-90 -20 -153 -46 -216 -90 -105 -74 -118 -146 -32 -180
52 -21 104 -20 201 5 101 25 194 76 241 131 40 47 45 79 17 107 -39 39 -113
48 -211 27z m180 -46 c18 -18 19 -23 6 -48 -12 -23 -94 -92 -109 -92 -3 0 -3
18 0 39 6 42 -20 101 -45 101 -7 0 -10 5 -7 10 3 6 35 10 71 10 51 0 68 -4 84
-20z m-297 -69 c-5 -46 -3 -52 26 -82 18 -17 30 -34 27 -36 -11 -12 -103 -23
-136 -17 -106 19 -94 73 35 153 28 17 51 31 52 31 1 0 -1 -22 -4 -49z"/>
<path d="M1381 4923 c-33 -28 -86 -149 -115 -266 -43 -166 -39 -428 6 -427 7
0 35 21 61 45 53 49 182 117 263 137 61 16 100 40 90 56 -4 7 -18 12 -32 12
-21 0 -33 18 -99 155 -41 85 -85 185 -97 222 -30 88 -40 96 -77 66z"/>
<path d="M1900 4231 c-205 -37 -370 -141 -473 -299 -79 -120 -106 -215 -107
-363 0 -127 12 -184 59 -282 138 -289 464 -446 765 -367 225 59 411 230 477
440 21 65 24 93 23 220 -1 136 -3 149 -30 215 -57 138 -131 238 -224 307 -55
40 -171 95 -238 112 -74 20 -192 27 -252 17z m186 -91 c34 -6 95 -25 136 -44
187 -87 309 -250 339 -455 33 -232 -95 -482 -303 -587 -213 -108 -476 -80
-648 69 -151 131 -226 326 -200 517 46 330 347 553 676 500z"/>
<path d="M1825 3837 c-204 -115 -131 -457 98 -459 190 -2 293 228 178 394 -56
82 -191 113 -276 65z"/>
<path d="M3585 4031 c-108 -39 -153 -71 -242 -173 -18 -21 -33 -40 -33 -42 0
-3 -14 -34 -30 -70 -19 -40 -37 -104 -47 -166 -23 -143 -9 -249 52 -375 96
-200 256 -303 455 -293 174 8 317 114 404 299 43 89 56 153 56 269 0 118 -13
176 -60 277 -65 138 -176 235 -320 279 -62 19 -174 16 -235 -5z m277 -94 c163
-80 261 -252 262 -457 0 -210 -105 -390 -270 -462 -60 -27 -75 -30 -153 -26
-66 2 -97 9 -136 28 -81 40 -139 95 -188 178 -163 278 -48 655 231 759 23 8
68 12 117 11 64 -2 91 -9 137 -31z"/>
<path d="M3533 3704 c-116 -69 -143 -276 -52 -387 39 -48 81 -67 144 -67 65 0
108 27 150 94 26 42 30 61 33 130 4 92 -9 134 -60 192 -60 68 -141 83 -215 38z"/>
<path d="M2995 2970 c-96 -15 -115 -33 -115 -111 0 -42 24 -78 140 -210 90
-101 97 -126 61 -206 -58 -127 -198 -192 -373 -173 -166 19 -259 93 -282 225
-12 67 -16 75 -40 75 -38 0 -49 -23 -42 -83 21 -153 129 -257 305 -293 107
-21 208 -14 295 21 59 24 70 25 187 19 84 -5 134 -12 154 -23 23 -12 59 -16
150 -16 111 0 125 2 182 29 115 53 170 140 161 251 -6 69 -27 109 -59 113 -40
5 -53 -19 -34 -63 43 -105 -11 -195 -145 -242 -44 -16 -156 -17 -201 -2 -38
13 -86 54 -100 84 -5 11 -19 33 -31 48 -18 22 -23 41 -23 87 1 57 2 59 49 102
94 85 141 140 164 195 22 52 23 61 11 96 -7 21 -22 45 -34 53 -44 29 -258 42
-380 24z"/>
<path d="M2904 2545 c-7 -18 14 -47 27 -39 5 3 6 10 3 16 -5 8 -1 9 10 5 14
-6 15 -3 6 13 -13 24 -38 26 -46 5z"/>
<path d="M2686 2534 c-4 -11 0 -25 12 -37 16 -15 23 -17 40 -8 17 9 19 16 13
34 -10 28 -56 36 -65 11z"/>
<path d="M3444 2525 c-7 -18 3 -35 22 -35 8 0 14 10 14 25 0 27 -27 35 -36 10z"/>
<path d="M3300 2515 c-17 -21 0 -45 31 -45 24 0 29 4 29 24 0 17 -7 25 -25 28
-14 3 -29 0 -35 -7z"/>
<path d="M3563 2493 c-18 -6 -16 -42 2 -49 25 -10 44 3 38 25 -5 21 -21 31
-40 24z"/>
<path d="M2813 2463 c-18 -7 -16 -50 3 -57 18 -7 54 10 54 26 0 10 -30 38 -40
37 -3 0 -11 -3 -17 -6z"/>
<path d="M2640 2405 c0 -31 35 -35 43 -6 6 24 0 31 -25 31 -13 0 -18 -7 -18
-25z"/>
<path d="M3417 2403 c-9 -8 5 -43 17 -43 22 0 35 15 26 30 -8 14 -35 22 -43
13z"/>
<path d="M2173 1719 c-5 -5 -8 -21 -5 -35 14 -75 244 -117 618 -112 209 3 244
6 268 21 21 14 24 21 16 36 -5 10 -15 21 -22 23 -7 2 -76 1 -153 -4 -240 -14
-513 11 -629 57 -70 28 -78 29 -93 14z"/>
<path d="M1924 945 c11 -8 27 -15 35 -15 11 0 10 4 -5 15 -10 8 -26 14 -34 14
-11 0 -10 -3 4 -14z"/>
<path d="M2077 849 c7 -7 15 -10 18 -7 3 3 -2 9 -12 12 -14 6 -15 5 -6 -5z"/>
<path d="M2170 775 c-10 -13 -9 -15 9 -15 11 0 21 4 21 9 0 18 -18 21 -30 6z"/>
<path d="M2255 720 c3 -5 11 -10 16 -10 6 0 7 5 4 10 -3 6 -11 10 -16 10 -6 0
-7 -4 -4 -10z"/>
<path d="M2290 695 c0 -7 30 -13 34 -7 3 4 -4 9 -15 9 -10 1 -19 0 -19 -2z"/>
</g>
</svg>
