<?xml version="1.0" standalone="no"?>
<!DOCTYPE svg PUBLIC "-//W3C//DTD SVG 20010904//EN"
 "http://www.w3.org/TR/2001/REC-SVG-20010904/DTD/svg10.dtd">
<svg version="1.0" xmlns="http://www.w3.org/2000/svg"
 width="640.000000pt" height="640.000000pt" viewBox="0 0 640.000000 640.000000"
 preserveAspectRatio="xMidYMid meet">

<g transform="translate(0.000000,640.000000) scale(0.100000,-0.100000)"
fill="#000000" stroke="none">
<path d="M2420 4400 c0 -5 5 -10 10 -10 6 0 10 5 10 10 0 6 -4 10 -10 10 -5 0
-10 -4 -10 -10z"/>
<path d="M2440 4265 c0 -6 4 -26 10 -45 5 -19 11 -48 14 -64 7 -38 35 -69 55
-60 9 4 34 8 55 10 40 4 63 14 33 14 -9 0 -17 6 -17 14 0 8 -16 16 -40 20 -23
4 -38 11 -35 16 3 6 -3 10 -15 10 -32 0 -19 24 16 30 l29 5 -25 18 c-13 9 -32
17 -40 17 -9 0 -21 5 -28 12 -7 7 -12 8 -12 3z"/>
<path d="M3720 4090 c0 -5 7 -10 15 -10 8 0 15 5 15 10 0 6 -7 10 -15 10 -8 0
-15 -4 -15 -10z"/>
<path d="M2540 4051 c0 -6 4 -11 9 -11 5 0 8 -8 7 -17 -1 -23 32 -29 40 -8 8
19 -2 30 -33 40 -14 4 -23 2 -23 -4z"/>
<path d="M2530 3981 c0 -5 5 -13 10 -16 6 -3 10 -2 10 4 0 5 -4 13 -10 16 -5
3 -10 2 -10 -4z"/>
<path d="M3627 3984 c-3 -3 3 -16 14 -27 16 -18 17 -22 5 -29 -20 -11 -63 0
-70 18 -3 8 -13 14 -23 14 -15 0 -14 -4 7 -24 24 -23 109 -45 111 -29 0 5 3
26 5 47 4 35 3 38 -11 26 -13 -11 -18 -11 -24 -2 -4 7 -10 10 -14 6z"/>
<path d="M3320 3920 c-12 -8 -9 -10 13 -10 15 0 27 5 27 10 0 13 -20 13 -40 0z"/>
<path d="M3565 3868 c1 -13 3 -25 4 -27 0 -2 10 4 21 14 22 20 18 35 -9 35
-13 0 -18 -7 -16 -22z"/>
<path d="M3130 3820 c-14 -11 -20 -20 -14 -20 14 0 50 27 44 33 -3 3 -16 -3
-30 -13z"/>
<path d="M2585 3790 c-3 -5 1 -10 9 -10 9 0 16 5 16 10 0 6 -4 10 -9 10 -6 0
-13 -4 -16 -10z"/>
<path d="M2644 3705 c-1 -14 -5 -36 -8 -50 -5 -18 -2 -25 8 -25 8 0 18 5 21
10 3 6 11 10 17 10 6 0 3 -9 -6 -19 -9 -10 -19 -33 -21 -50 -3 -25 1 -35 24
-52 15 -11 34 -36 41 -55 8 -19 19 -34 25 -34 6 0 27 -18 45 -40 18 -22 39
-40 45 -40 6 0 32 -20 58 -44 61 -57 108 -78 168 -78 27 0 49 -3 49 -7 -1 -12
-35 -49 -63 -66 -26 -17 -28 -17 -47 0 -22 20 -42 13 -22 -7 12 -12 17 -48 6
-48 -3 0 -15 5 -27 11 -17 8 -16 4 7 -16 15 -14 27 -27 25 -28 -2 -1 -14 -7
-26 -14 -17 -10 -24 -9 -33 2 -7 8 -18 15 -25 15 -7 0 -15 7 -19 15 -7 20 -22
19 -30 -2 -4 -10 -1 -20 9 -26 13 -7 14 -11 3 -25 -10 -12 -10 -14 0 -8 7 4
12 1 12 -9 0 -9 -4 -13 -10 -10 -5 3 -10 1 -10 -5 0 -7 7 -10 15 -7 18 8 30
-11 26 -40 -2 -17 2 -21 12 -17 19 7 46 -28 83 -105 17 -35 35 -61 45 -61 8 0
20 -5 25 -10 14 -14 61 3 84 30 10 11 22 20 29 20 6 0 11 5 11 10 0 6 10 10
23 10 20 1 21 2 5 14 -10 7 -18 15 -18 18 0 8 75 2 90 -7 22 -14 92 -16 107
-4 10 9 17 9 25 1 7 -7 18 -12 25 -12 18 0 53 -32 53 -48 0 -7 5 -10 10 -7 6
3 10 0 10 -8 0 -8 -6 -14 -12 -13 -7 0 -14 -3 -16 -9 -1 -5 6 -10 17 -11 30
-2 44 -14 31 -29 -7 -8 -7 -14 -1 -17 6 -1 12 -19 14 -38 2 -19 7 -42 10 -50
13 -36 -5 -80 -32 -80 -19 0 -12 -22 9 -27 22 -6 26 -18 10 -28 -5 -3 -10 -15
-10 -26 0 -15 7 -19 35 -19 24 0 35 -5 35 -14 0 -8 3 -16 8 -19 4 -2 1 -2 -5
-1 -7 2 -13 -1 -13 -6 0 -6 -21 -10 -47 -10 l-48 0 28 -26 29 -26 -36 -34 -35
-33 32 -3 c24 -2 31 -7 29 -21 -3 -21 23 -33 41 -19 19 15 42 0 45 -32 3 -25
1 -28 -12 -17 -8 7 -20 10 -25 6 -15 -9 -51 13 -51 31 0 17 -24 29 -40 19 -8
-5 -6 -11 6 -19 15 -11 13 -15 -18 -34 -20 -12 -41 -22 -47 -22 -7 0 -9 -4 -6
-10 3 -5 18 -10 33 -10 32 0 137 -53 137 -69 0 -6 -3 -11 -7 -11 -5 0 -16 0
-26 0 -10 0 -27 8 -38 18 -16 15 -25 17 -51 9 -42 -13 -43 -32 -1 -23 l31 6
-27 -25 c-15 -14 -33 -25 -40 -25 -8 0 -17 -8 -20 -17 -5 -12 -9 -14 -18 -5
-21 21 -27 13 -21 -25 8 -48 -9 -37 -41 26 -18 34 -22 51 -15 64 13 23 3 21
-24 -4 -18 -16 -23 -17 -25 -6 -2 11 -9 9 -28 -9 -18 -19 -28 -23 -42 -15 -12
7 -22 5 -34 -6 -15 -14 -18 -14 -18 -2 0 8 6 21 13 27 12 13 18 62 7 62 -3 0
-14 -14 -23 -30 -10 -17 -22 -30 -28 -30 -5 0 -9 -10 -9 -22 0 -34 -11 -68
-21 -68 -5 0 -9 6 -9 14 0 7 -9 25 -20 39 -14 18 -20 40 -20 76 0 38 -4 53
-16 58 -8 3 -13 12 -10 19 3 8 0 11 -10 7 -12 -4 -14 -15 -11 -42 3 -20 3 -28
1 -18 -3 9 -9 17 -14 17 -5 0 -7 8 -4 18 3 9 -7 -2 -21 -25 -16 -26 -35 -43
-46 -43 -10 0 -19 4 -19 9 0 5 -13 9 -29 9 -28 -1 -30 -4 -36 -50 -4 -26 -10
-46 -15 -43 -4 3 -5 -10 0 -28 4 -18 3 -43 -1 -56 -6 -13 -5 -30 2 -42 11 -21
3 -43 -12 -34 -5 4 -9 1 -9 -4 0 -13 -22 -10 -32 4 -4 6 -8 -1 -8 -14 0 -20 4
-22 25 -17 18 5 25 2 25 -8 0 -8 -6 -16 -12 -19 -19 -7 2 -39 35 -55 34 -17
34 -28 0 -35 -41 -8 -55 2 -49 32 3 14 1 33 -4 41 -9 13 -11 13 -20 0 -13 -19
-13 -40 0 -40 18 0 10 -18 -10 -23 -12 -3 -20 0 -20 8 0 7 -7 15 -15 19 -17 6
-20 42 -5 51 6 3 10 12 10 18 0 7 -6 5 -14 -5 -8 -11 -20 -15 -33 -12 -24 7
-53 -31 -31 -38 7 -3 6 -7 -5 -11 -12 -4 -17 -1 -17 9 0 10 -6 14 -14 11 -10
-4 -13 -1 -9 9 3 7 9 14 14 14 5 0 9 7 9 15 0 8 4 15 8 15 10 0 35 51 28 57
-3 3 -15 -2 -27 -10 -11 -9 -28 -13 -35 -10 -22 8 -16 22 6 16 14 -4 20 0 20
11 0 9 4 16 8 16 5 0 19 9 32 20 18 16 26 17 37 8 8 -6 11 -18 8 -27 -3 -9 3
-6 13 7 16 20 20 21 45 10 27 -13 36 -28 16 -28 -5 0 -7 -5 -4 -10 15 -25 25
7 23 80 -2 84 -12 92 -38 30 -12 -28 -40 -42 -40 -19 0 5 -4 7 -10 4 -5 -3
-10 2 -10 11 0 16 -2 15 -21 -2 -22 -19 -22 -19 -10 4 8 14 8 22 1 22 -5 0
-10 9 -10 20 0 23 -4 24 -31 9 -16 -8 -25 -7 -40 7 -10 9 -19 25 -19 34 0 9
-4 20 -10 26 -7 7 -4 22 9 47 l19 37 -25 20 c-14 11 -29 20 -33 20 -11 0 -4
-97 7 -113 5 -7 10 -50 12 -97 2 -47 8 -94 14 -105 20 -35 16 -174 -5 -222
-10 -24 -22 -43 -26 -43 -4 0 -8 -37 -10 -83 -3 -75 0 -85 23 -117 34 -46 62
-136 49 -157 -5 -9 -28 -23 -51 -32 -22 -9 -49 -23 -60 -32 -10 -9 -32 -24
-49 -32 -62 -32 -88 -145 -63 -283 15 -85 20 -91 111 -126 29 -11 68 -31 86
-45 39 -29 58 -25 67 16 9 42 40 78 74 86 50 11 74 114 25 107 -17 -2 -23 4
-28 29 -4 19 -13 33 -26 36 -37 10 -15 33 31 33 15 0 19 7 19 39 0 22 5 43 10
46 7 4 8 11 1 18 -5 7 -12 30 -16 52 -4 22 -13 60 -20 85 -13 45 -16 68 -15
127 0 18 -5 35 -10 38 -6 4 -7 11 -4 17 4 6 3 13 -2 17 -17 11 -32 58 -24 70
6 10 12 10 29 2 12 -7 19 -16 16 -22 -4 -5 -1 -9 5 -9 5 0 23 18 38 40 28 41
42 50 42 26 0 -8 6 -13 13 -12 28 3 117 -15 117 -24 0 -6 12 -10 26 -10 19 0
25 4 20 15 -7 19 12 71 22 61 4 -4 8 -49 8 -99 2 -107 20 -303 31 -320 4 -7 8
-30 10 -52 7 -116 10 -123 42 -103 16 10 23 10 33 0 10 -10 9 -22 -1 -60 -16
-62 -28 -73 -49 -45 -17 22 -17 22 -14 -26 3 -44 -23 -234 -34 -253 -3 -5 -1
-8 3 -8 14 0 39 49 63 120 12 36 30 80 41 98 15 26 16 36 7 52 -10 15 -8 28
11 69 27 57 73 111 94 111 8 0 18 7 21 16 4 12 1 14 -14 9 -17 -5 -20 -2 -21
27 0 18 -2 41 -4 50 -2 10 1 20 6 24 5 3 9 9 9 14 0 4 -18 -1 -41 -12 -22 -10
-43 -17 -47 -14 -9 10 17 56 35 62 10 3 32 13 50 22 36 18 53 11 32 -14 -13
-16 -12 -16 8 -6 23 13 30 41 40 158 11 134 4 264 -14 264 -21 0 -15 26 12 58
14 17 25 38 24 48 0 17 -2 17 -16 -3 -16 -23 -43 -31 -43 -13 0 18 43 92 68
117 25 26 23 45 -3 23 -8 -7 -15 -9 -15 -4 0 5 -6 -2 -13 -15 -17 -34 -40 -41
-28 -9 5 15 6 30 0 39 -5 8 -8 21 -8 29 0 10 3 8 9 -5 7 -19 8 -19 15 -2 5 13
11 15 20 7 9 -8 14 -5 19 12 6 21 8 20 19 -12 20 -54 30 -65 60 -65 15 -1 27
2 27 6 0 9 61 32 80 30 36 -5 45 -14 21 -20 l-25 -7 24 -22 c28 -26 40 -28 40
-7 0 8 7 15 15 15 20 0 19 -27 -2 -54 -11 -13 -26 -20 -38 -18 -17 4 -16 0 8
-21 28 -27 38 -49 12 -27 -12 10 -15 9 -15 -7 0 -33 11 -34 40 -3 16 17 38 30
50 30 21 0 22 -3 15 -42 -4 -24 -7 -49 -6 -55 3 -30 1 -54 -18 -168 -11 -66
-20 -141 -21 -167 0 -26 -4 -49 -10 -53 -5 -3 -7 -12 -4 -19 3 -7 -1 -40 -10
-72 -12 -52 -18 -104 -31 -279 -3 -35 9 -127 20 -162 2 -7 20 4 42 26 26 26
57 44 98 57 38 11 68 28 83 45 14 18 36 30 62 34 50 8 118 57 126 90 3 14 1
45 -5 70 -6 24 -11 64 -11 89 0 24 -4 56 -10 70 -5 15 -12 63 -16 109 -3 45
-12 96 -19 112 -18 39 -51 167 -61 230 -4 28 -8 138 -8 246 -1 211 -7 241 -47
216 -18 -11 -18 -12 3 -34 l22 -23 -33 -29 c-18 -16 -30 -34 -27 -39 3 -5 1
-24 -5 -41 -8 -22 -17 -31 -34 -31 -34 0 -49 -23 -33 -50 11 -17 11 -22 -2
-30 -10 -7 -18 -5 -26 5 -6 8 -21 15 -33 15 -12 0 -30 7 -39 16 -15 15 -14 16
7 9 26 -8 41 6 41 41 0 13 -8 24 -20 27 -31 8 -24 23 17 33 l36 9 -2 76 c-2
85 18 154 50 164 21 7 26 49 8 61 -8 4 -7 9 2 15 11 8 11 12 -4 23 -18 14 -18
15 2 35 30 30 36 67 17 96 -9 13 -16 32 -16 41 0 22 -88 150 -120 176 -36 29
-88 105 -95 141 -16 77 -71 224 -92 248 -13 14 -23 31 -23 37 0 17 62 142 70
142 4 0 15 18 25 40 13 30 26 42 49 48 28 7 31 12 32 48 0 21 6 49 12 61 14
26 16 63 2 63 -5 0 -7 -6 -4 -14 6 -16 -18 -27 -35 -17 -14 9 -24 68 -12 76
13 8 -8 88 -26 103 -24 17 -41 15 -48 -7 -8 -25 -58 -44 -74 -28 -9 9 -14 8
-21 -3 -13 -20 -12 -30 1 -30 6 0 9 -7 5 -15 -3 -9 0 -15 9 -15 8 0 15 -9 15
-20 0 -24 -22 -26 -41 -4 -18 22 -63 43 -103 48 -41 6 -108 23 -145 38 -14 6
-36 10 -48 9 -11 -1 -24 2 -27 8 -4 6 -15 7 -29 2 -12 -5 -56 -12 -97 -16 -98
-10 -117 -18 -135 -57 l-14 -33 1 45 c1 25 -2 44 -8 43 -5 -1 -26 -4 -47 -8
-32 -6 -36 -5 -31 9 4 11 1 16 -10 16 -9 0 -16 7 -16 15 0 26 -25 16 -26 -10z
m518 -566 c-5 -22 -19 -40 -41 -53 l-32 -19 16 39 c14 34 54 78 63 69 2 -1 -1
-18 -6 -36z m-52 17 c0 -11 -19 -15 -25 -6 -3 5 1 10 9 10 9 0 16 -2 16 -4z
m503 -823 c-7 -2 -19 -2 -25 0 -7 3 -2 5 12 5 14 0 19 -2 13 -5z m-969 -388
c-9 -14 -19 -24 -21 -21 -7 7 16 46 28 46 5 0 2 -11 -7 -25z m631 -25 c-3 -5
-11 -10 -16 -10 -6 0 -7 5 -4 10 3 6 11 10 16 10 6 0 7 -4 4 -10z m-376 -135
c5 -11 21 -35 35 -54 14 -19 23 -38 19 -44 -8 -13 -82 74 -83 98 0 11 -3 31
-6 45 l-6 25 16 -25 c8 -14 19 -34 25 -45z m951 -111 c0 -10 -10 -13 -33 -11
-30 2 -33 5 -35 34 l-3 33 36 -21 c19 -12 35 -27 35 -35z m-860 -31 c0 -13 -3
-13 -15 -3 -8 7 -15 19 -15 27 0 13 3 13 15 3 8 -7 15 -19 15 -27z m872 -30
c25 -23 23 -33 -9 -33 -14 0 -23 3 -20 7 4 3 0 15 -10 25 -15 17 -15 18 2 18
10 0 27 -7 37 -17z m-91 -33 c22 -17 22 -19 5 -20 -18 0 -18 -1 -1 -20 19 -21
40 -17 31 6 -7 19 9 18 29 -2 20 -20 15 -39 -11 -39 -10 0 -25 -4 -32 -9 -23
-14 -60 30 -59 70 1 39 6 41 38 14z m-11 -170 c0 -11 -3 -20 -8 -20 -4 0 -13
9 -20 20 -11 18 -10 20 8 20 13 0 20 -7 20 -20z m-43 -65 c6 -14 9 -25 6 -25
-7 0 -32 33 -33 43 0 16 16 5 27 -18z m-557 -4 c0 -13 -26 -32 -33 -24 -8 7
11 33 24 33 5 0 9 -4 9 -9z m630 -174 c-4 -5 -18 -6 -30 -2 -16 5 -18 10 -10
20 6 7 7 21 3 31 -4 12 3 7 19 -11 15 -16 23 -34 18 -38z m-66 -9 c9 -34 8
-38 -9 -38 -8 0 -15 -4 -15 -10 0 -5 -8 -10 -19 -10 -20 0 -36 46 -20 56 5 3
9 -1 10 -8 0 -7 4 -3 9 10 5 12 16 22 24 22 7 0 16 -10 20 -22z"/>
<path d="M2610 3599 c0 -5 5 -7 10 -4 6 3 10 8 10 11 0 2 -4 4 -10 4 -5 0 -10
-5 -10 -11z"/>
<path d="M2795 3221 c-3 -5 -1 -12 5 -16 5 -3 10 1 10 9 0 18 -6 21 -15 7z"/>
<path d="M2832 3150 c6 -23 15 -37 19 -33 11 11 -3 65 -18 70 -8 3 -8 -7 -1
-37z"/>
<path d="M2593 3149 c-14 -35 -8 -53 12 -45 8 3 19 -2 25 -10 7 -8 19 -14 26
-14 7 0 11 -6 8 -14 -4 -11 1 -11 30 -2 19 6 33 13 30 17 -2 3 5 14 16 24 19
17 19 19 4 37 -10 10 -23 18 -30 18 -7 0 -14 5 -16 11 -3 8 -11 8 -27 -2 -19
-11 -25 -11 -28 -1 -9 23 -39 12 -50 -19z"/>
<path d="M2762 3088 c3 -7 13 -15 24 -17 16 -3 17 -1 5 13 -16 19 -34 21 -29
4z"/>
<path d="M2500 2460 c0 -5 5 -10 10 -10 6 0 10 5 10 10 0 6 -4 10 -10 10 -5 0
-10 -4 -10 -10z"/>
<path d="M3792 2400 c0 -14 2 -19 5 -12 2 6 2 18 0 25 -3 6 -5 1 -5 -13z"/>
<path d="M2525 2400 c-3 -6 1 -7 9 -4 18 7 21 14 7 14 -6 0 -13 -4 -16 -10z"/>
<path d="M3043 2330 c2 -13 9 -26 15 -28 14 -4 9 25 -6 40 -10 10 -12 7 -9
-12z"/>
<path d="M2520 2330 c0 -5 4 -10 9 -10 6 0 13 5 16 10 3 6 -1 10 -9 10 -9 0
-16 -4 -16 -10z"/>
<path d="M2530 2281 c0 -31 18 -45 41 -30 11 7 10 9 -5 9 -14 0 -17 5 -12 25
5 18 2 25 -9 25 -10 0 -15 -10 -15 -29z"/>
<path d="M3813 2293 c-18 -7 -16 -30 3 -37 23 -9 29 0 18 23 -5 10 -15 16 -21
14z"/>
<path d="M2917 2250 c-11 -18 -23 -27 -32 -23 -9 3 -15 -1 -15 -11 0 -10 6
-13 16 -9 12 4 15 0 14 -18 -1 -13 -2 -31 -1 -39 1 -13 2 -13 11 0 6 10 10 11
10 3 0 -7 4 -13 9 -13 5 0 4 15 -2 35 -8 29 -7 38 6 53 18 20 22 38 9 46 -5 3
-16 -8 -25 -24z"/>
<path d="M3065 2270 c3 -5 8 -10 11 -10 2 0 4 5 4 10 0 6 -5 10 -11 10 -5 0
-7 -4 -4 -10z"/>
<path d="M3160 2271 c0 -5 3 -17 7 -27 6 -16 7 -16 14 2 6 17 8 16 20 -11 12
-29 13 -29 17 -7 2 13 -2 30 -8 38 -14 15 -50 19 -50 5z"/>
<path d="M3012 2230 c-20 -24 -28 -40 -20 -40 8 0 20 6 26 12 10 10 15 10 21
-1 10 -16 61 -24 61 -10 0 6 -13 18 -30 27 -21 12 -28 22 -24 35 8 25 3 21
-34 -23z"/>
<path d="M2786 2241 c-10 -11 -13 -21 -7 -25 10 -7 14 -3 24 27 8 22 4 22 -17
-2z"/>
<path d="M2833 2223 c-20 -7 -15 -30 7 -36 16 -4 20 0 20 19 0 24 -4 27 -27
17z"/>
<path d="M3160 2196 c0 -8 4 -17 9 -20 5 -4 7 3 4 14 -6 23 -13 26 -13 6z"/>
<path d="M3157 2123 c-4 -3 -7 -11 -7 -17 0 -6 5 -5 12 2 6 6 9 14 7 17 -3 3
-9 2 -12 -2z"/>
<path d="M3256 2123 c-12 -12 -37 -75 -32 -81 3 -2 14 15 25 39 20 41 23 57 7
42z"/>
<path d="M2701 1854 c0 -11 3 -14 6 -6 3 7 2 16 -1 19 -3 4 -6 -2 -5 -13z"/>
<path d="M3515 1850 c3 -5 8 -10 11 -10 2 0 4 5 4 10 0 6 -5 10 -11 10 -5 0
-7 -4 -4 -10z"/>
<path d="M3371 1804 c0 -11 3 -14 6 -6 3 7 2 16 -1 19 -3 4 -6 -2 -5 -13z"/>
<path d="M3470 1694 c0 -11 8 -14 27 -12 37 4 40 23 3 26 -22 2 -30 -2 -30
-14z"/>
<path d="M3520 1150 c0 -5 7 -10 15 -10 8 0 15 5 15 10 0 6 -7 10 -15 10 -8 0
-15 -4 -15 -10z"/>
<path d="M3035 991 c-3 -5 -1 -12 5 -16 5 -3 10 1 10 9 0 18 -6 21 -15 7z"/>
<path d="M3217 683 c-7 -6 37 -33 55 -33 5 0 27 -9 50 -20 46 -22 130 -20 176
4 15 7 39 19 55 25 15 6 27 16 27 23 0 9 -3 9 -12 0 -16 -16 -55 -15 -61 1 -4
8 -6 6 -6 -4 -1 -22 -89 -26 -98 -4 -5 14 -7 14 -22 1 -14 -12 -28 -14 -71 -7
-30 5 -58 7 -62 4 -5 -2 -8 1 -8 6 0 12 -13 15 -23 4z"/>
<path d="M2987 619 c-12 -13 -28 -19 -45 -18 -15 2 -33 0 -40 -5 -7 -4 -22 -4
-33 -1 -19 6 -21 4 -17 -19 5 -24 3 -26 -29 -26 -19 0 -41 7 -49 15 -11 10
-21 12 -39 5 -15 -6 -27 -6 -30 0 -8 12 -42 13 -49 2 -11 -18 15 -79 44 -107
16 -16 30 -36 30 -45 0 -20 40 -40 82 -40 25 0 42 12 90 63 63 66 91 112 103
165 8 38 6 39 -18 11z"/>
</g>
</svg>
